<svg width="340" height="351" viewBox="0 0 340 351" fill="none" xmlns="http://www.w3.org/2000/svg">
<g opacity="0.1">
<path fill-rule="evenodd" clip-rule="evenodd" d="M258.827 289.512C250.534 284.562 243.64 277.123 239.108 268.23C233.297 257.284 229.342 245.485 227.444 233.431C220.873 195.826 231.451 158.966 255.868 134.379C272.328 118.506 292.22 111.932 310.586 116.306C322.738 119.335 333.68 127.475 340.823 138.803C346.757 147.72 349.138 158.516 347.387 168.558C345.043 177.676 340.818 185.946 335.002 192.803L334.936 192.892C329.557 200.222 324.474 207.148 324.689 215.277C324.911 218.338 325.44 221.397 326.269 224.403C327.018 227.221 327.59 230.072 327.982 232.934C330.561 252.81 319.165 271.821 295.928 286.39C279.502 296.724 266.679 293.763 258.827 289.512ZM335.222 164.869C336.289 159.057 335.148 152.8 332.039 147.411L330.79 145.654C325.644 137.584 317.851 131.751 309.18 129.48C294.664 126.049 278.585 131.661 265.002 144.797C243.413 166.605 234.09 199.262 239.948 232.557C242.928 249.815 250.595 270.783 263.696 277.757C270.965 281.706 279.411 280.681 288.894 274.759C299.975 267.798 318.211 253.13 315.684 233.434C315.346 231.093 314.875 228.762 314.274 226.453C313.161 222.475 312.469 218.419 312.211 214.365C311.824 201.856 318.246 193.05 324.496 184.481C324.616 184.317 324.736 184.152 324.856 183.987C329.592 178.583 333.122 172.073 335.222 164.869Z" fill="#5C5F5A"/>
<path fill-rule="evenodd" clip-rule="evenodd" d="M239.276 328.286C233.163 321.089 227.775 313.253 223.216 304.928C200.431 263.727 195.444 210.913 201.571 173.931C207.697 134.805 228.211 101.321 258.76 80.5867C273.828 70.1832 291.905 65.0773 310.732 65.9073C330.413 66.891 349.491 77.4687 362.463 94.5898C380.321 119.609 377.778 151.536 369.42 173.033C368.613 175.13 367.751 177.13 366.874 179.164C366.783 179.376 366.691 179.588 366.599 179.801C364.206 184.857 362.357 190.227 361.083 195.821C360.021 205.445 360.641 215.374 362.911 225.122C363.038 225.902 363.168 226.68 363.297 227.457C363.659 229.631 364.018 231.791 364.315 233.929C369.443 269.113 362.703 301.642 345.834 323.21C331.219 341.402 309.47 351.447 285.855 350.911C268.647 350.67 251.634 342.406 239.276 328.286ZM357.692 166.864C364.155 150.217 366.715 126.51 355.951 107.046C354.986 105.248 353.915 103.509 352.747 101.839C342.19 88.1724 326.836 79.747 311.006 78.9337C294.629 78.3502 278.926 82.8546 265.805 91.8995C237.905 110.973 219.246 141.72 213.809 177.581C206.986 218.905 214.711 280.935 247.965 319.836C257.777 330.986 271.276 337.459 284.889 337.54C304.881 337.889 323.282 329.39 335.737 314.056C350.626 295.093 356.495 266.17 351.888 234.604C351.573 232.364 351.198 230.123 350.819 227.851C350.724 227.281 350.628 226.709 350.533 226.135C347.917 214.751 347.309 203.158 348.741 191.97C350.148 185.412 352.267 179.121 355.057 173.217C355.227 172.822 355.397 172.429 355.567 172.037C356.309 170.323 357.046 168.62 357.692 166.864Z" fill="#5C5F5A"/>
<path fill-rule="evenodd" clip-rule="evenodd" d="M265.086 414.167C240.288 409.027 218.739 389.955 200.697 357.329C194.061 345.144 188.334 332.494 183.571 319.508C160.534 257.874 153.792 197.958 164.063 146.237C176.145 86.1706 211.689 38.4414 259.785 18.9264C281.112 9.60138 305.192 7.47839 329.026 12.8218C353.572 18.5745 375.671 35.0931 389.699 58.1739C406.798 88.0082 404.823 121.32 402.908 153.604L402.903 153.683C402.352 163.05 401.791 172.735 401.731 181.987C401.64 192.799 402.341 203.95 403.017 214.719C403.041 215.103 403.065 215.487 403.089 215.871C403.206 218.127 403.339 220.413 403.473 222.72C403.827 228.804 404.189 235.036 404.277 241.255C405.133 277.239 400.053 328.902 371.108 368.503C349.838 397.661 308.849 423.09 265.086 414.167ZM390.413 150.875C392.169 119.945 393.833 90.6382 379.755 65.183L379.173 64.0467C367.158 44.4073 348.278 30.3929 327.344 25.5748C305.965 20.8114 284.375 22.7682 265.28 31.2C220.82 49.4333 187.588 93.9046 176.418 150.185C166.627 199.349 173.063 256.623 195.131 315.668C214.273 366.748 238.188 395.449 266.333 401.29C305.038 409.26 341.829 386.101 361.229 359.748C388.177 322.97 392.766 274.6 391.89 240.501C391.569 231.981 391.027 223.479 390.49 215.234C390.465 214.834 390.44 214.433 390.415 214.032C389.736 203.02 389.032 191.622 389.102 180.377C389.185 170.748 389.684 160.785 390.39 151.28L390.413 150.875Z" fill="#5C5F5A"/>
<path fill-rule="evenodd" clip-rule="evenodd" d="M170.677 407.268C165.069 399.605 159.949 391.575 155.356 383.241C143.544 361.199 134.21 337.949 127.57 314.025C103.719 232.112 103.639 152.314 128.007 89.3069C155.983 16.4407 218.271 -33.162 286.696 -37.1485C321.346 -39.0192 353.752 -29.2327 378.01 -9.52341C405.113 12.5711 424.411 49.1381 432.296 93.3187C437.23 120.798 437.783 148.46 438.315 175.249C438.426 184.979 438.626 195.286 439.143 205.416C439.456 213.003 439.898 220.571 440.339 228.14C442.486 252.544 442.597 276.884 440.671 300.872C435.017 349.658 412.953 392.935 378.431 422.947C341.112 455.095 295.759 469.291 254.007 461.913C221.441 456.135 191.244 436.334 170.677 407.268ZM139.608 311.221C150.31 347.958 163.631 376.893 180.368 399.72C198.613 425.876 225.651 443.684 254.818 448.755C292.632 455.447 335.451 441.767 369.977 412.257C402.279 384.166 422.928 343.668 428.226 298.013C430.084 274.856 429.991 251.362 427.949 227.803C427.455 220.056 427.049 212.468 426.714 204.841C426.302 194.652 426.081 184.305 425.895 174.356L425.89 174.141C425.355 147.995 424.8 120.925 420.111 94.6913C412.766 53.9102 395.383 20.5551 371.045 0.785612C349.42 -16.8379 320.067 -25.4487 288.672 -23.7112C224.585 -19.9882 166.094 26.7853 139.702 95.4944C116.545 155.592 116.526 232.372 139.608 311.221Z" fill="#5C5F5A"/>
</g>
</svg>
