<svg width="348" height="140" class="WelcomeBndle_mob_icon_bottom__LG3xq d-block d-block d-sm-none" viewBox="0 0 348 140" fill="none" xmlns="http://www.w3.org/2000/svg"><path fill-rule="evenodd" clip-rule="evenodd" d="M120.952 104.982C124.276 99.1726 129.342 94.3017 135.445 91.0476C142.955 86.8819 151.079 83.991 159.407 82.5217C185.377 77.4888 211.05 84.3465 228.397 100.95C239.605 112.151 244.414 125.849 241.618 138.63C239.675 147.088 234.175 154.773 226.418 159.867C220.315 164.092 212.866 165.88 205.886 164.795C199.538 163.287 193.755 160.466 188.93 156.524L188.867 156.479C183.72 152.846 178.857 149.413 173.227 149.665C171.109 149.858 168.996 150.264 166.924 150.877C164.981 151.432 163.013 151.865 161.035 152.173C147.297 154.214 133.98 146.561 123.589 130.648C116.22 119.399 118.107 110.477 120.952 104.982ZM208.287 156.319C212.328 156.983 216.648 156.113 220.342 153.89L221.543 153.002C227.069 149.334 231.01 143.86 232.473 137.823C234.665 127.722 230.572 116.653 221.297 107.411C205.911 92.7314 183.166 86.6892 160.172 91.1732C148.253 93.4586 133.823 99.0384 129.159 108.205C126.516 113.291 127.334 119.13 131.558 125.625C136.523 133.213 146.918 145.66 160.533 143.658C162.15 143.394 163.759 143.037 165.351 142.591C168.093 141.769 170.894 141.238 173.7 141.008C182.362 140.58 188.545 144.917 194.561 149.137C194.677 149.218 194.793 149.299 194.909 149.381C198.714 152.593 203.269 154.955 208.287 156.319Z" fill="#DEE4DC"></path><path fill-rule="evenodd" clip-rule="evenodd" d="M93.837 91.9296C98.7448 87.6026 104.105 83.7692 109.815 80.5038C138.07 64.191 174.598 60.0613 200.299 63.8337C227.486 67.5779 250.947 81.3635 265.703 102.264C273.103 112.571 276.872 125.03 276.538 138.085C276.107 151.734 269.022 165.087 257.326 174.293C240.219 186.986 218.066 185.631 203.066 180.116C201.602 179.583 200.206 179.011 198.786 178.43C198.638 178.369 198.489 178.309 198.34 178.248C194.807 176.654 191.063 175.441 187.171 174.63C180.489 174.018 173.618 174.574 166.893 176.272C166.355 176.37 165.817 176.469 165.281 176.569C163.779 176.847 162.287 177.124 160.809 177.357C136.498 181.359 113.874 177.105 98.7148 165.693C85.9239 155.8 78.6867 140.859 78.7561 124.491C78.7036 112.565 84.2117 100.672 93.837 91.9296ZM207.192 171.911C218.808 176.177 235.266 177.647 248.614 169.941C249.847 169.249 251.039 168.485 252.181 167.655C261.515 160.166 267.156 149.42 267.517 138.442C267.712 127.088 264.391 116.266 257.956 107.29C244.385 88.2037 222.844 75.6688 197.928 72.3597C169.209 68.161 126.332 74.3057 99.8041 97.8425C92.2038 104.783 87.8917 114.218 88.0093 123.651C88.0232 137.507 94.1467 150.148 104.93 158.581C118.259 168.654 138.372 172.351 160.184 168.756C161.732 168.509 163.28 168.221 164.849 167.929C165.243 167.856 165.638 167.782 166.035 167.709C173.888 165.751 181.913 165.182 189.683 166.031C194.245 166.922 198.63 168.309 202.757 170.167C203.032 170.28 203.306 170.392 203.58 170.505C204.778 170.997 205.967 171.486 207.192 171.911Z" fill="#DEE4DC"></path><path fill-rule="evenodd" clip-rule="evenodd" d="M34.6619 110.913C37.9062 93.6653 50.8451 78.4918 73.2191 65.5742C81.5767 60.8214 90.268 56.6912 99.204 53.2258C141.612 36.477 183.039 31.0405 219.005 37.4958C260.776 45.0988 294.299 69.1155 308.434 102.189C315.168 116.847 316.946 133.503 313.549 150.085C309.877 167.165 298.714 182.687 282.902 192.701C262.45 204.929 239.345 203.986 216.952 203.072L216.898 203.07C210.401 202.808 203.684 202.543 197.273 202.619C189.78 202.695 182.063 203.323 174.61 203.929C174.344 203.95 174.079 203.972 173.814 203.994C172.252 204.103 170.67 204.224 169.073 204.347C164.862 204.67 160.549 205 156.241 205.141C131.321 206.194 95.4615 203.334 67.6543 183.786C47.1805 169.422 29.0388 141.347 34.6619 110.913ZM218.682 194.38C240.134 195.201 260.46 195.979 277.917 185.901L278.697 185.483C292.15 176.907 301.619 163.647 304.69 149.082C307.717 134.209 306.085 119.275 299.999 106.153C286.798 75.5817 255.562 53.1254 216.425 46.1054C182.238 39.9505 142.638 45.1411 102.011 61.1852C66.8651 75.1005 47.2853 92.0366 43.5978 111.611C38.5705 138.53 55.0858 163.724 73.5925 176.829C99.4179 195.029 132.99 197.591 156.604 196.548C162.503 196.217 168.387 195.733 174.092 195.255C174.369 195.233 174.646 195.211 174.924 195.189C182.545 194.577 190.433 193.943 198.225 193.848C204.897 193.783 211.807 194.001 218.401 194.369L218.682 194.38Z" fill="#DEE4DC"></path><path fill-rule="evenodd" clip-rule="evenodd" d="M38.2371 45.4101C43.4746 41.4269 48.9726 37.7767 54.6882 34.4879C69.8092 26.0224 85.7985 19.2589 102.289 14.3526C158.737 -3.21951 214.024 -4.2942 257.99 11.7841C308.832 30.2358 343.995 72.7581 347.631 120.115C349.37 144.098 343.004 166.676 329.658 183.735C314.696 202.795 289.608 216.633 259.098 222.66C240.123 226.43 220.964 227.167 202.41 227.877C195.67 228.079 188.532 228.349 181.52 228.837C176.267 229.15 171.029 229.553 165.791 229.955C148.91 231.755 132.047 232.143 115.403 231.115C81.5292 227.821 51.2635 213.087 30.0288 189.552C7.27789 164.106 -3.13698 132.865 1.44163 103.843C5.02831 81.2063 18.362 60.0317 38.2371 45.4101ZM104.386 22.6575C79.0692 30.5417 59.1919 40.1406 43.5904 52.0288C25.7015 65.0035 13.7086 83.9643 10.5681 104.238C6.41469 130.522 16.4396 160.014 37.3267 183.558C57.2022 205.58 85.5249 219.369 117.224 222.456C133.292 223.447 149.569 223.083 165.865 221.367C171.227 220.926 176.479 220.547 181.759 220.218C188.813 219.803 195.979 219.517 202.869 219.261L203.018 219.255C221.127 218.55 239.875 217.82 257.991 214.236C286.152 208.626 309.04 196.156 322.426 179.041C334.36 163.833 339.951 143.386 338.346 121.656C334.948 77.3011 301.794 37.3736 253.852 19.9662C211.918 4.68962 158.721 5.65794 104.386 22.6575Z" fill="#DEE4DC"></path></svg>