<svg width="370" height="298" class="WelcomeBndle_icon_01__Ye44a d-block d-block d-sm-none" viewBox="0 0 370 298" fill="none" xmlns="http://www.w3.org/2000/svg"><path fill-rule="evenodd" clip-rule="evenodd" d="M110.783 175.122C118.275 179.488 127.113 181.671 136.068 181.368C147.191 181.177 158.178 179.158 168.471 175.413C200.866 164.238 225.226 139.916 233.933 110.054C239.252 90.2281 235.774 71.7459 224.359 59.2187C216.701 50.9882 205.553 45.9297 193.551 45.2391C183.969 44.4521 174.454 47.2713 167.326 53.0096C161.181 58.8121 156.52 65.7233 153.661 73.271L153.619 73.3613C150.198 80.7716 146.966 87.7726 140.487 91.1358C137.986 92.2912 135.352 93.2042 132.631 93.8591C130.092 94.4954 127.604 95.284 125.185 96.2193C108.451 102.828 98.4685 120.039 97.1184 144.622C96.1365 162.014 104.033 170.802 110.783 175.122ZM175.509 60.9625C179.611 57.5998 185.022 55.7779 190.606 55.879L192.529 56.0969C201.103 56.6333 209.07 60.2211 214.622 66.046C223.623 75.9588 226.2 91.0278 221.782 107.404C214.029 133.837 192.425 155.348 163.725 165.211C148.874 170.367 129.072 173.453 117.902 166.191C111.643 162.197 108.779 155.116 109.311 145.094C109.965 133.366 113.566 112.669 130.135 106.097C132.121 105.345 134.157 104.703 136.232 104.172C139.841 103.318 143.327 102.1 146.624 100.541C156.619 95.4111 160.746 86.5411 164.762 77.9091C164.839 77.7431 164.917 77.5771 164.994 77.4112C167.182 71.343 170.762 65.7425 175.509 60.9625Z" fill="#DEE4DC"></path><path fill-rule="evenodd" clip-rule="evenodd" d="M88.8159 207.327C97.1243 209.002 105.621 209.831 114.141 209.796C156.405 209.796 200.06 190.769 226.449 169.89C254.523 148.081 271.915 117.419 274.931 84.4149C276.558 68.0586 272.715 51.6397 263.885 37.211C254.562 22.1776 237.965 11.7863 218.88 9.03388C191.468 5.87485 167.492 21.7426 154.237 37.6467C152.94 39.192 151.744 40.7374 150.527 42.3097C150.4 42.4737 150.273 42.6381 150.145 42.8028C147.213 46.8791 143.798 50.6649 139.958 54.0955C132.858 59.1105 124.789 62.937 116.146 65.3881C115.478 65.6271 114.81 65.8636 114.144 66.0996C112.279 66.7598 110.426 67.4159 108.618 68.1114C78.7511 79.3677 56.126 98.794 46.5113 121.416C38.5697 140.799 40.1274 162.247 50.8072 180.566C58.4728 193.979 72.355 203.753 88.8159 207.327ZM164.177 44.1789C174.447 31.8696 191.958 19.5603 211.923 19.5603C213.755 19.5375 215.587 19.6224 217.406 19.8144C232.728 22.1707 246.017 30.5719 253.532 42.6539C261.105 55.2655 264.389 69.5576 262.983 83.7939C260.121 113.997 244.074 142.012 218.265 161.862C188.766 185.173 136.684 206.052 91.6788 196.829C78.6571 193.966 67.7081 186.174 61.7301 175.515C52.7714 159.962 51.4536 141.814 58.0888 125.37C66.517 105.435 86.6873 88.2601 113.486 78.1657C115.382 77.4402 117.305 76.761 119.254 76.0726C119.744 75.8997 120.235 75.7263 120.727 75.5514C130.806 72.6609 140.177 68.1022 148.344 62.1164C152.884 58.1625 156.906 53.7651 160.332 49.0082C160.568 48.7039 160.803 48.3996 161.037 48.0957C162.061 46.7681 163.079 45.4495 164.177 44.1789Z" fill="#DEE4DC"></path><path fill-rule="evenodd" clip-rule="evenodd" d="M10.1399 224.36C24.9506 241.607 49.2941 250.249 82.7613 250.249C95.2158 250.168 107.641 249.172 119.911 247.272C178.335 238.594 228.331 217.86 264.499 187.323C306.435 151.738 328.488 103.082 322.923 56.8221C320.984 36.0177 312.19 16.1794 297.639 -0.221994C282.456 -17.0049 259.88 -27.1885 235.655 -28.1812C204.79 -28.6529 179.481 -12.6299 154.951 2.89937L154.892 2.93704C147.773 7.43957 140.408 12.0873 133.167 16.1541C124.713 20.9223 115.649 25.2165 106.895 29.3636C106.583 29.5116 106.271 29.6594 105.959 29.807C104.137 30.6957 102.283 31.5844 100.412 32.4814C95.4793 34.8463 90.4264 37.2688 85.5025 39.9013C56.8631 54.8614 18.4862 81.2955 -0.0475559 121.237C-13.7127 150.613 -15.8811 193.859 10.1399 224.36ZM162.523 11.5298C186.058 -3.28647 208.357 -17.325 234.469 -17.325L235.614 -17.3613C256.262 -16.4546 275.473 -7.71145 288.352 6.64005C301.381 21.3646 309.223 39.1747 310.895 57.8381C315.887 100.685 295.389 146.109 256.03 179.334C221.663 208.382 173.876 228.208 117.906 236.523C69.4649 243.676 36.5295 237.358 19.7141 217.787C-3.3611 190.844 -1.15178 151.883 11.1223 125.195C28.3059 88.0487 64.3098 63.43 91.4763 49.3051C98.3089 45.8556 105.223 42.5877 111.933 39.4286C112.258 39.2741 112.584 39.1194 112.91 38.9645C121.855 34.715 131.115 30.3161 139.918 25.3764C147.446 21.128 155.056 16.4076 162.216 11.7235L162.523 11.5298Z" fill="#DEE4DC"></path><path fill-rule="evenodd" clip-rule="evenodd" d="M56.5743 295.527C65.03 296.603 73.5621 297.137 82.1043 297.124C104.551 296.828 126.87 294.059 148.548 288.882C223.256 272.034 285.976 237.43 324.885 190.916C369.972 137.285 381.877 66.8056 355.284 11.3229C341.7 -16.709 319.934 -37.9144 293.913 -48.4082C264.783 -60.1003 227.674 -59.3741 189.543 -46.3748C165.813 -38.3139 143.843 -26.7308 122.568 -15.5107C114.876 -11.3713 106.693 -7.05034 98.5106 -3.05617C92.4147 -0.00615692 86.2779 2.93493 80.141 5.87601L80.1405 5.87627C60.0369 14.7914 40.8682 25.2782 22.8616 37.2124C-13.0065 62.8475 -37.417 98.9803 -45.9958 139.137C-55.0377 182.419 -46.4867 224.213 -22.5524 253.806C-3.86658 276.878 24.8068 291.997 56.5743 295.527ZM145.522 278.208C112.013 285.76 83.4967 287.866 58.294 284.635C29.8215 281.666 4.08623 268.162 -12.5681 247.452C-34.2522 220.655 -42.1076 181.076 -33.9249 141.135C-25.8911 103.556 -3.0483 69.7418 30.5138 45.7465C47.8979 34.2275 66.3945 24.0937 85.7879 15.4633C92.0886 12.4859 98.2256 9.50838 104.363 6.45828C112.545 2.35518 120.769 -1.9658 128.665 -6.14153L128.836 -6.23158C149.608 -17.1696 171.114 -28.4938 193.759 -36.2068C228.985 -48.153 262.739 -48.9882 288.841 -38.4581C312.08 -29.1262 331.596 -9.80892 343.87 15.6086C368.786 67.5692 357.453 133.836 314.944 184.417C277.795 228.716 217.488 262.086 145.522 278.208Z" fill="#DEE4DC"></path></svg>