<svg width="634" height="351" viewBox="0 0 634 351" fill="none" xmlns="http://www.w3.org/2000/svg">
<g opacity="0.05">
<path fill-rule="evenodd" clip-rule="evenodd" d="M158.723 220.893C172.487 228.914 188.727 232.925 205.181 232.369C225.618 232.018 245.805 228.308 264.719 221.427C324.24 200.894 369 156.205 384.997 101.336C394.77 64.9087 388.38 30.9497 367.406 7.93226C353.335 -7.19042 332.853 -16.4849 310.8 -17.7538C293.193 -19.1999 275.711 -14.0199 262.614 -3.47636C251.324 7.18522 242.759 19.8837 237.505 33.7518L237.429 33.9177C231.143 47.5334 225.204 60.397 213.299 66.5766C208.704 68.6994 203.865 70.377 198.866 71.5804C194.2 72.7495 189.629 74.1984 185.184 75.917C154.438 88.0595 136.095 119.683 133.615 164.851C131.81 196.808 146.319 212.954 158.723 220.893ZM277.647 11.1361C285.186 4.95746 295.127 1.6099 305.387 1.79574L308.92 2.19604C324.675 3.18172 339.314 9.7739 349.514 20.4765C366.052 38.6903 370.788 66.3779 362.669 96.4673C348.425 145.035 308.73 184.559 255.997 202.681C228.709 212.155 192.325 217.826 171.802 204.482C160.3 197.143 155.038 184.134 156.015 165.72C157.218 144.17 163.833 106.141 194.279 94.0655C197.928 92.6851 201.669 91.5042 205.48 90.5295C212.111 88.9608 218.518 86.7222 224.574 83.8578C242.939 74.4319 250.522 58.1342 257.902 42.2738C258.044 41.9687 258.186 41.6637 258.327 41.359C262.348 30.2091 268.926 19.9188 277.647 11.1361Z" fill="#5C5F5A"/>
<path fill-rule="evenodd" clip-rule="evenodd" d="M118.361 280.065C133.627 283.143 149.239 284.665 164.894 284.602C242.549 284.602 322.76 249.642 371.247 211.279C422.831 171.207 454.786 114.87 460.329 54.2274C463.317 24.1744 456.257 -5.99361 440.032 -32.5049C422.902 -60.1272 392.406 -79.2202 357.34 -84.2774C306.973 -90.0818 262.921 -60.9264 238.565 -31.7043C236.183 -28.8651 233.985 -26.0259 231.749 -23.1372C231.516 -22.8355 231.282 -22.5333 231.047 -22.2305C225.661 -14.7408 219.385 -7.78479 212.329 -1.48145C199.284 7.73312 184.459 14.764 168.578 19.2676C167.35 19.7067 166.123 20.1413 164.899 20.5749C161.473 21.788 158.068 22.9935 154.746 24.2714C99.8684 44.9537 58.297 80.6473 40.6311 122.212C26.0392 157.827 28.9013 197.236 48.5244 230.894C62.609 255.539 88.1161 273.498 118.361 280.065ZM256.832 -19.7003C275.7 -42.3174 307.875 -64.9345 344.56 -64.9345C347.926 -64.9764 351.291 -64.8204 354.633 -64.4675C382.786 -60.1381 407.203 -44.7017 421.012 -22.5025C434.927 0.670166 440.959 26.9304 438.377 53.088C433.117 108.583 403.632 160.057 356.212 196.53C302.011 239.362 206.315 277.725 123.623 260.778C99.6969 255.517 79.5794 241.2 68.5954 221.615C52.1347 193.039 49.7134 159.695 61.9049 129.479C77.3908 92.8514 114.452 61.2943 163.691 42.7469C167.176 41.4137 170.709 40.1657 174.29 38.9008C175.189 38.5833 176.091 38.2646 176.997 37.9433C195.515 32.6322 212.733 24.2561 227.739 13.2579C236.082 5.99304 243.471 -2.0867 249.765 -10.827C250.199 -11.3861 250.631 -11.9453 251.061 -12.5036C252.944 -14.9429 254.813 -17.3658 256.832 -19.7003Z" fill="#5C5F5A"/>
<path fill-rule="evenodd" clip-rule="evenodd" d="M-26.197 311.36C1.0161 343.051 45.7448 358.93 107.237 358.93C130.121 358.78 152.952 356.95 175.495 353.459C282.844 337.514 374.707 299.418 441.161 243.309C518.215 177.926 558.734 88.5253 548.51 3.52768C544.946 -34.6983 528.789 -71.1491 502.052 -101.285C474.156 -132.122 432.674 -150.833 388.163 -152.657C331.453 -153.524 284.949 -124.083 239.879 -95.5498L239.769 -95.4805C226.689 -87.2076 213.158 -78.6678 199.852 -71.1955C184.319 -62.4346 167.665 -54.5445 151.581 -46.9246C151.007 -46.6527 150.433 -46.3811 149.861 -46.1099C146.512 -44.4769 143.106 -42.844 139.668 -41.1958C130.605 -36.8507 121.321 -32.3994 112.274 -27.5625C59.652 -0.0750427 -10.8614 48.495 -44.9153 121.884C-70.0235 175.858 -74.0078 255.318 -26.197 311.36ZM253.79 -79.6935C297.032 -106.917 338.005 -132.711 385.982 -132.711L388.087 -132.778C426.025 -131.112 461.323 -115.047 484.987 -88.6779C508.927 -61.6232 523.336 -28.8988 526.408 5.39322C535.579 84.1194 497.917 167.583 425.599 228.629C362.453 282.002 274.649 318.43 171.811 333.708C82.8049 346.851 22.2896 335.243 -8.60697 299.282C-51.0052 249.778 -46.9458 178.191 -24.3936 129.153C7.17961 60.9019 73.3329 15.6677 123.249 -10.2853C135.803 -16.6234 148.507 -22.628 160.836 -28.4323C161.433 -28.7163 162.032 -29.0005 162.631 -29.2851C179.067 -37.0931 196.081 -45.1756 212.255 -54.2519C226.087 -62.0578 240.069 -70.731 253.225 -79.3375L253.79 -79.6935Z" fill="#5C5F5A"/>
<path fill-rule="evenodd" clip-rule="evenodd" d="M59.1187 442.121C74.6551 444.099 90.332 445.08 106.027 445.057C147.271 444.511 188.279 439.424 228.11 429.912C365.378 398.955 480.621 335.374 552.111 249.909C634.953 151.368 656.829 21.8699 607.966 -80.0739C583.008 -131.58 543.015 -170.542 495.204 -189.824C441.68 -211.306 373.497 -209.972 303.435 -186.087C259.834 -171.276 219.465 -149.993 180.375 -129.378C166.242 -121.772 151.207 -113.833 136.172 -106.494C124.971 -100.89 113.695 -95.4856 102.419 -90.0815C65.4809 -73.7009 30.2604 -54.4324 -2.82487 -32.5046C-68.7288 14.5971 -113.58 80.9874 -129.343 154.77C-145.957 234.297 -130.245 311.089 -86.2683 365.463C-51.9351 407.856 0.749176 435.635 59.1187 442.121ZM222.549 410.299C160.981 424.176 108.585 428.046 62.2774 422.108C9.96207 416.653 -37.3238 391.841 -67.9244 353.79C-107.767 304.553 -122.2 231.831 -107.165 158.442C-92.404 89.3949 -50.4327 27.2651 11.2341 -16.8238C43.1756 -37.9888 77.1611 -56.6085 112.794 -72.4659C124.371 -77.9367 135.647 -83.4075 146.924 -89.0118C161.958 -96.5508 177.068 -104.49 191.577 -112.163L191.892 -112.328C230.058 -132.426 269.572 -153.233 311.179 -167.404C375.904 -189.354 437.923 -190.889 485.884 -171.541C528.583 -154.395 564.441 -118.901 586.993 -72.1991C632.775 23.2731 611.951 145.032 533.845 237.969C465.587 319.364 354.78 380.677 222.549 410.299Z" fill="#5C5F5A"/>
</g>
</svg>
